<?xml version="1.0" standalone="no"?>
<!DOCTYPE svg PUBLIC "-//W3C//DTD SVG 20010904//EN"
 "http://www.w3.org/TR/2001/REC-SVG-20010904/DTD/svg10.dtd">
<svg version="1.0" xmlns="http://www.w3.org/2000/svg"
 width="391.000000pt" height="125.000000pt" viewBox="0 0 391.000000 125.000000"
 preserveAspectRatio="xMidYMid meet">

<g transform="translate(0.000000,125.000000) scale(0.100000,-0.100000)"
fill="#000000" stroke="none">
<path d="M178 1240 c-54 -16 -98 -52 -128 -104 l-30 -53 0 -460 0 -460 23 -44
c14 -27 42 -57 71 -77 l48 -32 1786 0 c1776 0 1786 0 1828 20 42 21 84 70 103
123 7 18 11 185 11 473 0 495 1 486 -68 557 -70 72 59 67 -1876 66 -958 0
-1753 -4 -1768 -9z m613 -74 c183 -39 345 -189 401 -371 30 -96 30 -224 0
-320 -68 -224 -287 -385 -522 -385 -64 0 -191 34 -253 67 -28 16 -81 57 -117
93 -109 108 -160 231 -160 385 0 350 311 603 651 531z m2897 -72 c30 -21 29
-59 -3 -80 -23 -15 -27 -15 -50 0 -32 21 -33 59 -3 80 12 9 25 16 28 16 3 0
16 -7 28 -16z m-1974 -41 l77 -6 -3 -31 -3 -31 -114 -5 c-73 -3 -116 -9 -118
-16 -2 -7 39 -42 92 -80 102 -72 114 -91 96 -147 -26 -78 -86 -99 -271 -95
l-125 3 -3 30 c-6 47 16 55 155 55 68 0 123 4 123 8 0 11 -61 68 -148 136 -40
32 -77 68 -81 79 -13 34 8 77 43 93 34 14 157 18 280 7z m1034 -21 c16 -21 16
-23 -13 -197 -34 -200 -32 -195 -100 -195 -66 0 -64 -9 -35 165 11 66 20 133
20 148 l0 28 -82 -3 -83 -3 -23 -155 c-13 -85 -28 -161 -34 -168 -7 -8 -29
-12 -62 -10 -47 3 -51 5 -54 30 -6 47 47 341 65 360 13 15 37 18 152 21 175 4
233 -1 249 -21z m813 11 c11 -12 159 -376 159 -391 0 -10 -15 -12 -57 -10
l-58 3 -50 124 c-75 184 -92 185 -151 8 -20 -62 -41 -118 -47 -124 -6 -9 -45
-13 -127 -13 -135 0 -132 -2 -190 109 -34 64 -36 66 -77 69 l-42 3 -6 -48 c-3
-26 -9 -66 -13 -88 l-7 -40 -53 -3 c-42 -2 -54 0 -59 14 -11 28 24 197 43 211
12 9 58 13 145 13 140 0 138 -1 139 73 l0 27 -145 0 -145 0 0 35 0 35 195 0
c185 0 196 -1 216 -21 18 -18 21 -30 17 -88 -5 -90 -25 -121 -78 -121 -23 0
-40 -5 -40 -11 0 -20 84 -149 94 -146 6 2 45 86 87 188 43 101 82 189 87 195
11 12 151 9 163 -3z m-1591 -17 c0 -13 -9 -77 -20 -141 -29 -169 -34 -155 59
-155 44 0 82 4 86 9 3 6 15 78 27 160 l21 151 64 0 63 0 0 -32 c0 -54 -39
-294 -52 -323 -20 -45 -54 -55 -192 -55 -130 0 -166 7 -203 42 -29 27 -29 55
-3 212 29 169 21 156 91 156 56 0 59 -1 59 -24z m-310 -486 l0 -30 -155 0
-155 0 0 30 0 30 155 0 155 0 0 -30z m340 0 l0 -30 -120 0 c-96 0 -120 -3
-120 -14 0 -10 23 -15 99 -18 114 -4 141 -18 141 -72 0 -65 -28 -76 -184 -76
l-126 0 0 30 0 30 120 0 c96 0 120 3 120 14 0 11 -22 15 -99 18 -80 2 -103 7
-120 22 -39 35 -23 100 29 119 8 3 70 6 138 6 l122 1 0 -30z m340 0 l0 -30
-108 0 c-121 0 -132 -5 -132 -60 0 -55 11 -60 132 -60 l108 0 0 -30 0 -30
-129 0 c-115 0 -131 2 -155 21 -24 19 -26 26 -26 99 0 73 2 80 26 99 24 19 40
21 155 21 l129 0 0 -30z m303 19 c33 -18 37 -28 37 -109 0 -41 -4 -80 -8 -86
-16 -25 -56 -34 -150 -34 -85 0 -103 3 -126 21 -24 19 -26 26 -26 98 0 80 8
99 50 114 29 10 201 7 223 -4z m340 0 c12 -7 25 -17 29 -23 12 -17 9 -61 -4
-74 -9 -9 -9 -15 0 -24 7 -7 12 -23 12 -37 -1 -59 -31 -71 -184 -71 l-126 0 0
120 0 120 126 0 c75 0 134 -5 147 -11z m340 -104 c37 -63 67 -117 67 -120 0
-3 -18 -5 -40 -5 -38 0 -40 2 -81 70 -23 39 -46 69 -51 68 -5 -2 -26 -33 -47
-68 -35 -62 -39 -65 -79 -68 -23 -2 -42 0 -42 3 0 3 30 57 67 120 66 112 68
115 103 115 35 0 37 -3 103 -115z m381 94 c22 -17 26 -29 26 -68 0 -35 -5 -53
-20 -66 -19 -18 -19 -18 0 -45 11 -16 20 -31 20 -34 0 -3 -18 -6 -39 -6 -34 0
-44 5 -67 35 -24 32 -30 35 -80 35 l-54 0 0 -35 c0 -33 -2 -35 -35 -35 l-35 0
0 120 0 120 129 0 c115 0 131 -2 155 -21z m-2044 -99 l0 -30 -155 0 -155 0 0
30 0 30 155 0 155 0 0 -30z m0 -90 l0 -30 -155 0 -155 0 0 30 0 30 155 0 155
0 0 -30z m-235 -183 c14 -38 20 -45 31 -36 17 14 18 5 3 -22 -10 -19 -14 -15
-40 41 -16 34 -29 67 -29 73 0 20 17 -7 35 -56z m70 18 c-9 -20 -18 -35 -21
-32 -3 3 2 22 11 42 8 21 18 36 20 33 3 -3 -2 -22 -10 -43z m93 38 c-33 -4
-38 -8 -38 -29 0 -20 5 -24 33 -26 l32 -1 -32 -4 c-29 -4 -33 -8 -33 -33 0
-26 4 -29 38 -33 l37 -4 -42 -1 -43 -2 0 70 0 70 43 -2 42 -1 -37 -4z m114
-61 c36 -3 37 -2 41 35 2 21 4 4 4 -37 0 -41 -2 -60 -4 -42 -4 30 -7 32 -43
32 -36 0 -39 -2 -43 -32 -2 -18 -4 1 -4 42 0 49 2 63 6 40 5 -32 9 -35 43 -38z
m95 -39 c-2 -21 -4 -4 -4 37 0 41 2 58 4 38 2 -21 2 -55 0 -75z m137 101 c9
-3 16 -10 16 -15 0 -6 -9 -5 -21 1 -29 16 -63 5 -79 -26 -12 -22 -12 -29 1
-52 13 -23 22 -27 59 -26 39 1 41 0 24 -13 -40 -29 -104 12 -104 68 0 51 52
83 104 63z m56 -29 c0 -19 -4 -35 -10 -35 -5 0 -10 16 -10 35 0 19 5 35 10 35
6 0 10 -16 10 -35z m85 -72 c-12 -51 -96 -51 -94 0 l0 22 9 -22 c12 -29 55
-31 70 -4 5 11 11 41 12 68 l1 48 4 -44 c3 -25 2 -55 -2 -68z m51 55 c-7 -64
-1 -75 44 -81 30 -3 28 -4 -12 -5 l-48 -2 0 70 c0 45 4 70 11 70 8 0 9 -17 5
-52z m204 32 c28 -28 26 -75 -5 -105 -30 -30 -54 -31 -89 -4 -31 24 -36 81 -9
111 22 24 77 24 103 -2z m128 2 c3 -11 0 -11 -16 -1 -20 13 -52 7 -52 -11 0
-5 18 -21 40 -35 43 -27 49 -44 24 -69 -20 -20 -45 -20 -70 -1 -18 15 -17 16
14 10 61 -12 79 34 21 54 -32 11 -45 32 -35 57 7 19 67 16 74 -4z m142 9 c-26
-4 -36 -12 -38 -28 -3 -20 1 -23 30 -25 l33 -1 -32 -4 c-29 -4 -33 -8 -33 -34
0 -27 3 -29 35 -29 19 0 35 -4 35 -10 0 -5 -18 -10 -40 -10 l-40 0 0 75 0 75
43 -1 42 -2 -35 -6z m79 -33 c-5 -83 -3 -88 38 -88 26 0 34 -3 26 -11 -6 -6
-26 -9 -44 -7 l-34 3 -3 73 c-2 48 1 72 8 72 7 0 11 -16 9 -42z m150 35 c-30
-3 -38 -9 -42 -29 -4 -21 0 -24 27 -25 27 -2 28 -2 6 -6 -34 -6 -43 -17 -35
-42 5 -16 15 -21 43 -21 26 0 33 -3 25 -11 -6 -6 -26 -9 -44 -7 l-34 3 -3 73
-3 72 48 -2 c42 -1 43 -2 12 -5z m161 -4 c11 -7 5 -8 -22 -3 -29 5 -40 2 -57
-15 -47 -47 -11 -108 56 -98 35 6 36 5 19 -8 -28 -21 -54 -18 -81 10 -31 30
-33 77 -5 105 21 21 66 26 90 9z m103 4 c-21 -4 -23 -10 -23 -75 0 -87 -12
-83 -14 4 -1 57 -3 63 -26 69 -17 5 -8 7 30 7 30 -1 45 -3 33 -5z m115 -5 c15
-15 16 -50 1 -65 -8 -8 -6 -18 6 -37 10 -15 15 -29 13 -32 -3 -3 -15 10 -26
28 -20 30 -20 34 -4 51 20 22 6 50 -27 55 -20 3 -21 -1 -21 -69 0 -92 -12 -83
-15 11 l-2 70 32 0 c17 0 36 -5 43 -12z m59 -100 c-2 -24 -4 -7 -4 37 0 44 2
63 4 43 2 -21 2 -57 0 -80z m137 106 c9 -3 16 -10 16 -15 0 -6 -8 -5 -19 1
-29 15 -49 12 -71 -10 -26 -26 -25 -55 1 -81 17 -17 29 -20 58 -16 34 6 35 5
16 -9 -41 -30 -105 10 -105 67 0 51 52 83 104 63z m155 -20 c24 -30 26 -43 10
-78 -25 -54 -109 -54 -129 -1 -14 37 -13 49 11 79 28 36 80 36 108 0z m125 17
c3 -5 -9 -8 -26 -7 -48 2 -50 -29 -4 -51 42 -20 49 -55 15 -74 -24 -12 -69 2
-69 22 0 8 4 8 14 -1 20 -16 60 -9 64 12 2 11 -10 24 -37 38 -42 21 -50 37
-29 58 14 14 64 16 72 3z"/>
<path d="M505 1135 c-248 -88 -397 -350 -344 -607 31 -149 146 -300 279 -365
84 -41 136 -52 241 -53 153 0 279 57 386 173 89 98 133 213 133 352 0 151 -47
263 -154 371 -112 112 -214 154 -375 154 -76 0 -111 -6 -166 -25z m346 -34
c57 -23 149 -87 156 -108 3 -7 -11 -29 -31 -50 l-35 -38 -28 18 c-15 10 -57
33 -93 50 -57 28 -75 32 -145 32 -88 0 -138 -16 -211 -65 -23 -17 -46 -30 -51
-30 -4 0 -25 16 -47 36 l-38 35 23 25 c36 38 113 84 177 105 80 27 244 22 323
-10z m-33 -146 c154 -69 239 -243 198 -405 -45 -175 -186 -278 -365 -268 -274
16 -421 324 -265 555 96 141 274 189 432 118z m-349 -639 c64 -39 147 -66 202
-66 54 0 160 35 207 70 23 16 47 30 54 30 18 0 78 -61 78 -79 0 -9 -22 -31
-49 -49 -119 -81 -256 -109 -392 -78 -81 18 -204 79 -226 113 -13 19 -11 24
17 57 18 20 37 36 42 36 6 0 36 -15 67 -34z"/>
<path d="M470 810 c-41 -41 -13 -110 43 -110 38 0 50 7 65 37 34 63 -57 124
-108 73z"/>
<path d="M810 806 c-77 -27 -197 -127 -311 -259 -33 -37 -59 -74 -59 -82 0
-12 16 -15 83 -15 l82 0 53 104 c55 109 131 196 172 196 40 0 20 -43 -62 -126
-34 -35 -57 -67 -54 -73 10 -15 116 -67 154 -76 17 -3 47 -3 67 1 53 10 41 33
-30 62 -89 35 -96 45 -58 84 100 106 76 225 -37 184z"/>
<path d="M3638 1089 c-44 -25 -3 -93 42 -69 26 14 26 56 1 70 -23 12 -22 12
-43 -1z m38 -33 c-1 -17 -4 -21 -13 -15 -7 7 -13 5 -16 -3 -3 -7 -6 -1 -6 15
-1 20 4 27 18 27 14 0 18 -7 17 -24z"/>
<path d="M2452 498 c-7 -7 -12 -28 -12 -48 0 -50 14 -60 85 -60 71 0 85 10 85
60 0 50 -14 60 -85 60 -34 0 -66 -5 -73 -12z"/>
<path d="M2780 495 c0 -12 16 -15 85 -15 69 0 85 3 85 15 0 12 -16 15 -85 15
-69 0 -85 -3 -85 -15z"/>
<path d="M2780 405 c0 -12 16 -15 85 -15 69 0 85 3 85 15 0 12 -16 15 -85 15
-69 0 -85 -3 -85 -15z"/>
<path d="M3490 480 l0 -30 73 0 c80 0 101 8 95 36 -3 16 -14 19 -86 22 l-82 3
0 -31z"/>
<path d="M2240 210 c-25 -25 -26 -62 -2 -83 39 -35 102 -9 102 41 0 28 -34 62
-60 62 -11 0 -29 -9 -40 -20z"/>
<path d="M3461 204 c-26 -33 -26 -49 -1 -74 26 -26 64 -26 90 0 25 25 25 41
-1 74 -26 34 -62 34 -88 0z"/>
</g>
</svg>
